<?xml version="1.0" encoding="iso-8859-1"?>
<!-- Generator: Adobe Illustrator 19.0.0, SVG Export Plug-In . SVG Version: 6.00 Build 0)  -->
<svg version="1.1" id="Layer_1" xmlns="http://www.w3.org/2000/svg" xmlns:xlink="http://www.w3.org/1999/xlink" x="0px" y="0px"
	 viewBox="0 0 512 512" style="enable-background:new 0 0 512 512;" xml:space="preserve">
<circle style="fill:#4AB8A1;" cx="256" cy="256" r="256"/>
<rect x="348" y="264" style="fill:#CC665C;" width="16" height="96"/>
<rect x="364" y="264" style="fill:#CC584C;" width="16" height="96"/>
<rect x="380" y="264" style="fill:#B34D43;" width="16" height="96"/>
<rect x="348" y="248" style="fill:#E6E6E6;" width="48" height="16"/>
<path style="fill:#CC733C;" d="M372,208.204c-13.252,0-24,10.748-24,24V248h48v-15.796C396,218.952,385.252,208.204,372,208.204z"/>
<path style="fill:#BF6C38;" d="M372,208.204c-1.368,0-2.696,0.14-4,0.36c11.344,1.908,20,11.752,20,23.64V248h8v-15.796
	C396,218.952,385.252,208.204,372,208.204z"/>
<path style="fill:#FFE1D9;" d="M388,352.204c-4.416,0-8,3.584-8,8c0-4.416-3.584-8-8-8s-8,3.584-8,8c0-4.416-3.584-8-8-8
	s-8,3.584-8,8l20.42,40.844c1.968,3.936,5.188,3.936,7.156,0L396,360.204C396,355.788,392.416,352.204,388,352.204z"/>
<path style="fill:#E6CBC3;" d="M388,352.204c-0.696,0-1.356,0.116-2,0.284c3.444,0.892,6,3.996,6,7.716l-20.42,40.844
	c-0.46,0.932-1,1.624-1.58,2.116c1.848,1.584,4.08,0.892,5.58-2.116L396,360.204C396,355.788,392.416,352.204,388,352.204z"/>
<path style="fill:#242424;" d="M372,384.204c-3.86,0-7.492,0.932-10.728,2.556l7.148,14.288c1.968,3.936,5.188,3.936,7.156,0
	l7.14-14.288C379.492,385.14,375.86,384.204,372,384.204z"/>
<path style="fill:#CCBB8F;" d="M332,404c0,8.8-7.2,16-16,16H132c-8.8,0-16-7.2-16-16V156c0-8.8,7.2-16,16-16h184c8.8,0,16,7.2,16,16
	V404z"/>
<path style="fill:#BFAF86;" d="M320,400c0,4.4-3.6,8-8,8H144c-4.4,0-8-3.6-8-8V168c0-4.4,3.6-8,8-8h168c4.4,0,8,3.6,8,8V400z"/>
<path style="fill:#E6E6E6;" d="M316,396c0,4.4-3.6,8-8,8H140c-4.4,0-8-3.6-8-8V164c0-4.4,3.6-8,8-8h168c4.4,0,8,3.6,8,8V396z"/>
<g>
	<rect x="152" y="172" style="fill:#B3B3B3;" width="144" height="24"/>
	<rect x="152" y="216" style="fill:#B3B3B3;" width="144" height="8"/>
	<rect x="152" y="232" style="fill:#B3B3B3;" width="144" height="8"/>
	<rect x="152" y="248" style="fill:#B3B3B3;" width="144" height="8"/>
	<rect x="152" y="264" style="fill:#B3B3B3;" width="144" height="8"/>
	<rect x="152" y="280" style="fill:#B3B3B3;" width="144" height="8"/>
	<rect x="152" y="296" style="fill:#B3B3B3;" width="144" height="8"/>
	<rect x="152" y="312" style="fill:#B3B3B3;" width="144" height="8"/>
</g>
<path style="fill:#E6E6E6;" d="M272,120c-4,0-16,0-16,0c0-16-12-32-32-32s-32,16-32,32c0,0-12,0-16,0s-8,4-8,8s0,12,0,12h56h56
	c0,0,0-8,0-12S276,120,272,120z M224,128c-6.628,0-12-5.372-12-12s5.372-12,12-12s12,5.372,12,12S230.628,128,224,128z"/>
<g>
	<path style="fill:#CCCCCC;" d="M248,120c0,0,3.908,0,8,0c0-16-12-32-32-32c-1.376,0-2.704,0.088-4,0.236
		C237.584,90.216,248,105.1,248,120z"/>
	<path style="fill:#CCCCCC;" d="M272,120c-1.72,0-4.916,0-8,0c4,0,8,4,8,8s0,12,0,12h8c0,0,0-8,0-12S276,120,272,120z"/>
</g>
<g>
</g>
<g>
</g>
<g>
</g>
<g>
</g>
<g>
</g>
<g>
</g>
<g>
</g>
<g>
</g>
<g>
</g>
<g>
</g>
<g>
</g>
<g>
</g>
<g>
</g>
<g>
</g>
<g>
</g>
</svg>
