<?xml version="1.0" encoding="iso-8859-1"?>
<!-- Generator: Adobe Illustrator 19.0.0, SVG Export Plug-In . SVG Version: 6.00 Build 0)  -->
<svg version="1.1" id="Layer_1" xmlns="http://www.w3.org/2000/svg" xmlns:xlink="http://www.w3.org/1999/xlink" x="0px" y="0px"
	 viewBox="0 0 512 512" style="enable-background:new 0 0 512 512;" xml:space="preserve">
<circle style="fill:#88C5CC;" cx="256" cy="256" r="256"/>
<path style="fill:#80B9BF;" d="M487.592,365.136L380,100h-24H176h-8h-16c-13.2,0-24,10.8-24,24v2.048v2.048V172v2.048v2.048V388
	v2.048v2.048c0,4.648,1.568,8.968,4.14,12.64l36.556,91.972C195.944,506.592,225.336,512,256,512
	C358.34,512,446.616,451.92,487.592,365.136z"/>
<path style="fill:#233540;" d="M128,124c0,13.2,10.8,24,24,24h204h24v24c0,0,0,180,0,232c0,4-4,8-8,8c-52-0.024-220,0-220,0
	c-13.2,0-24-10.8-24-24V172V124z"/>
<rect x="168" y="148" style="fill:#1C2A33;" width="8" height="264"/>
<path style="fill:#406A80;" d="M380,108c0-4-4-8-8-8s-16,0-16,0H152c-13.2,0-24,10.8-24,24s10.8,24,24,24h204h24
	C380,148,380,118,380,108z"/>
<rect x="168" y="100" style="fill:#395F73;" width="8" height="48"/>
<path style="fill:#E66356;" d="M152,148h16v-48h-16c-13.2,0-24,10.8-24,24S138.8,148,152,148z"/>
<path style="fill:#F5F5F5;" d="M152.268,140c-8.816,0-16.268-7.328-16.268-16s7.452-16,16.268-16H380v32H152.268z"/>
<path style="fill:#CC584C;" d="M152,412h16V148h-16c-13.2,0-24-10.8-24-24v48v216C128,401.2,138.8,412,152,412z"/>
<g>
	<rect x="228" y="252" style="fill:#F5F5F5;" width="80" height="8"/>
	<rect x="208" y="268" style="fill:#F5F5F5;" width="120" height="8"/>
</g>
<g>
</g>
<g>
</g>
<g>
</g>
<g>
</g>
<g>
</g>
<g>
</g>
<g>
</g>
<g>
</g>
<g>
</g>
<g>
</g>
<g>
</g>
<g>
</g>
<g>
</g>
<g>
</g>
<g>
</g>
</svg>
